<?xml version="1.0" encoding="UTF-8"?>
<svg id="YouTube" xmlns="http://www.w3.org/2000/svg" version="1.1" viewBox="0 0 100 100">
  <!-- Generator: Adobe Illustrator 29.0.1, SVG Export Plug-In . SVG Version: 2.1.0 Build 192)  -->
  <defs>
    <style>
      .st0 {
        fill: #000;
      }
    </style>
  </defs>
  <path class="st0" d="M50,0C22.4,0,0,22.4,0,50s22.4,50,50,50,50-22.4,50-50S77.6,0,50,0ZM84,48.7c-2.6,9.2-11.9,11.6-20.3,10.2,14.6,2.5,18.3,10.7,10.3,19-15.2,15.7-21.9-3.9-23.6-8.9-.3-.9-.5-1.4-.5-1,0-.4-.1,0-.5,1-1.7,5-8.4,24.6-23.6,8.9-8-8.2-4.3-16.5,10.3-19-8.3,1.4-17.7-.9-20.3-10.2-.7-2.7-2-19-2-21.2,0-11.1,9.7-7.6,15.6-3.1,8.3,6.2,17.2,18.8,20.4,25.6,3.3-6.8,12.2-19.4,20.4-25.6,6-4.5,15.6-8,15.6,3.1s-1.3,18.5-2,21.2Z"/>
</svg>