<?xml version="1.0" encoding="UTF-8"?>
<svg id="Layer_1" xmlns="http://www.w3.org/2000/svg" version="1.1" viewBox="0 0 512.5 512.5">
  <!-- Generator: Adobe Illustrator 30.5.1, SVG Export Plug-In . SVG Version: 2.1.4 Build 3)  -->
  <defs>
    <style>
      .st0 {
        fill: #fff;
      }
    </style>
  </defs>
  <path class="st0" d="M307.07,307.63c-.05-15.22-11.33-27.21-26.33-27.32l-50.5-.38-.02,62.64c16.37-.05,32.6.32,48.89-.56,18.67-1.01,31.24-15.42,27.95-34.38h0Z"/>
  <path class="st0" d="M295.18,227.25h0c9.68-11.32,9.16-30.51-.36-41.23-5.97-6.72-16.46-9.48-25.05-9.56l-39.49-.4-.06,61.16,37.84-.24c9.23-.06,20.33-1.8,27.11-9.73Z"/>
  <path class="st0" d="M0,0v512.5h512.5V0H0ZM372.05,449h-206.09v-25.14h206.09v25.14ZM370.49,301.47c2.61,16.89.38,33.59-6.3,48.56-6.56,14.7-18.57,24.24-32.82,31.39-14.41,5.38-29.25,9.82-45.27,9.86l-120.14.25V127h.01l106.39.15c19.51.03,38.09,4.11,55.16,11.78,26.01,11.57,39.4,35.75,38.46,63.74-.82,24.14-12.58,44.94-36.28,53.98,22.6,6.95,37.28,22.17,40.79,44.82Z"/>
</svg>