<?xml version="1.0" encoding="UTF-8"?>
<svg id="Layer_1" xmlns="http://www.w3.org/2000/svg" version="1.1" viewBox="0 0 386 207">
  <!-- Generator: Adobe Illustrator 29.5.0, SVG Export Plug-In . SVG Version: 2.1.0 Build 137)  -->
  <defs>
    <style>
      .st0 {
        fill: #fff;
      }
    </style>
  </defs>
  <path class="st0" d="M92.33,155.46c-.69,0-3.05.69-5.14,3.75-2.08,3.05-11.52,18.6-13.18,21.51-1.81,2.91-1.25,4.16.69,4.16h4.16c1.94,0,3.75-2.22,4.44-3.75.97-1.39,12.07-19.43,13.88-22.06,1.53-2.64.56-3.61-.69-3.61-1.11,0-4.16,0-4.16,0h0Z"/>
  <path class="st0" d="M54.45,184.88c7.08-.28,11.8-.56,17.35-10.69,2.36-4.58-4.3-4.72-4.3-4.72-.97,0,6.11.14,9.85-7.77,3.47-7.22-2.64-6.66-3.75-6.8-5.27-.7-15.13-.42-22.62,0-1.53,0-3.33,2.08-4.3,3.33-.69,1.39-12.21,19.98-13.88,22.62-1.81,2.77,0,3.89,1.8,4.02,5.27.28,11.93.28,19.84,0h0ZM60.56,175.17c-1.94,4.02-5.55,4.16-7.63,4.16h-5.55c-.69,0-1.39,0-.69-1.53.97-1.25,2.36-3.47,2.92-4.3.56-.97,1.11-1.25,2.36-1.25h5.97c1.11,0,4.02-.14,2.64,2.91h0ZM65.69,163.23c-1.94,4.02-5.69,4.02-7.63,4.02h-3.33c-.56,0-1.53,0-.56-1.25.97-1.39,2.08-3.75,2.78-4.58.69-.83,1.25-1.25,2.22-1.25h4.02c1.11,0,4.03,0,2.5,3.06h0Z"/>
  <path class="st0" d="M285.51,166.56l-9.16,14.57c-1.94,3.05-.28,3.75.69,3.75h4.02c1.52,0,2.64-.14,5-3.75l9.16-14.85c2.5-4.02-.56-3.75-2.5-3.75-3.47.14-4.3,0-7.22,4.02h0Z"/>
  <path class="st0" d="M323.25,167.53h-10.96c-1.11,0-2.64.97-3.47,2.08-.69,1.11-.28,2.22.83,2.22,0-.14,4.44,0,7.77,0,3.47-.14,4.72,2.22.97,7.36-.7,1.11-2.22,2.91-3.47,3.61,0,0-3.05,2.5-12.9,2.5-9.02,0-9.44-.97-9.44-.97-.83-.69-1.11-1.94-.83-2.64.42-.55,1.81-1.11,2.91-1.11h11.38c1.11,0,2.64-.97,3.33-2.22.83-1.11.42-2.5-.69-2.5h-8.46c-4.02,0-3.47-2.64-.42-7.08.83-1.25,2.36-2.77,3.47-3.61,0,0,3.33-2.5,13.05-2.5,3.89,0,10.41-.42,9.99,2.92-.14,1.53-2.36,1.94-3.05,1.94h0Z"/>
  <path class="st0" d="M351.98,167.67h-8.88c-1.11,0-2.64.97-3.33,2.36l-5.27,8.19c-.7,1.11-.28,2.36.55,2.36h10.55c1.52,0,2.5.14,2.36.55-.14,1.53-2.36,4.16-14.71,4.16-11.1,0-10.41-1.53-10.27-3.19.28-1.81,5.69-10.41,7.35-13.05,1.67-2.77,4.02-6.38,14.99-6.38,10.27,0,9.71,2.36,9.57,2.92,0,.55-.55,2.08-2.91,2.08h0Z"/>
  <path class="st0" d="M300.49,154.21c.83,0,1.8.83,1.11,2.22-.83,1.11-1.11,1.67-1.52,2.5-.55.83-1.8,1.25-3.33,1.25h-5.69c-1.11,0-1.11-.97-.56-1.94.42-.83.69-1.25,1.11-1.81.42-.69,1.11-2.22,3.33-2.22h5.55Z"/>
  <path class="st0" d="M134.52,170.17c-2.08,0-2.91,1.39-3.33,2.08-.28.55-.69.97-1.25,1.94-.42.97-.28,1.94.28,1.94h5.97c1.8,0,2.77-.55,3.33-1.39.56-.97.69-1.25,1.53-2.64.97-1.39-.28-1.94-.97-1.94h-5.55Z"/>
  <path class="st0" d="M272.46,175.86c3.61-5.83,1.39-2.22,6.52-10.41,5-8.33-2.91-9.99-10.69-9.99-11.93,0-15.54.55-15.54.55-1.25,0-2.91,1.11-3.61,2.5l-14.43,23.31c-.83,1.39-.56,2.5.56,2.77,0,0,3.47.28,15.4.28,16.38,0,17.9-3.05,21.79-9.02h0ZM267.6,165.45s-6.24,9.85-6.66,10.41c-.55.83-2.5,3.47-5.41,3.47h-6.1c-1.11,0-1.67-.14-.97-1.25l9.99-15.96c.42-.55,1.11-.97,1.94-.97h5.97c1.94,0,2.5,2.08,1.25,4.3h0Z"/>
  <path class="st0" d="M176.85,171.28c-3.47,0-4.58.28-7.63.42-1.25,0-2.91.97-3.61,2.36l-2.91,5c-3.61,5.69,4.16,6.11,10.27,6.11,9.85,0,14.57-2.77,14.57-2.77,1.25-.55,2.78-2.08,3.47-3.33l6.38-10.41c.69-1.11.97-3.05.28-4.16,0,0-.83-1.94-10.68-1.94s-13.6,1.52-13.6,1.52c-1.11.55-2.5,1.53-2.91,2.08-.28.83.28,1.39,1.39,1.39h14.43c1.11,0,1.53.97.97,1.94-1.25,1.67-3.33,1.81-3.33,1.81h-7.08ZM182.4,178.08v.14c-.97,1.39-2.91,2.64-4.02,2.64h-5.55c-1.11,0-1.53-1.25-.56-2.64v-.14c.97-1.52,2.91-2.77,4.02-2.77h5.55c1.11,0,1.53,1.25.56,2.77h0Z"/>
  <path class="st0" d="M157.7,169.62c.97-1.39,2.5-2.36,3.61-2.36h4.44c.69,0,2.91-.14,3.05-1.52.14-2.22-4.58-2.77-6.38-2.77-6.52,0-10.13.28-13.88,5.83-2.91,4.44-5.83,9.02-7.77,12.35-1.66,3.05-.14,3.75.83,3.75h4.02c1.53,0,2.64-.14,5-3.75l7.08-11.52h0Z"/>
  <path class="st0" d="M128.69,166.7l-6.25,10.41c-.83,1.11,0,1.66.69,1.66h2.22c.69,0,1.67.83.83,2.08-.69,1.39-.83,1.94-1.53,2.77-.56.97-1.53,1.25-3.19,1.25h-2.64c-1.8,0-.83-2.64-.83-2.64-2.64,2.91-8.74,2.91-15.13,2.91s-14.02,0-10.41-6.11l7.77-12.49c1.25-2.08,2.22-2.91,3.47-3.47,0,0,.28-.42,3.61-.42,2.22,0,5.14,0,2.64,3.89l-7.08,11.52c-.83,1.11-.42,2.22.83,2.22h4.86c1.25,0,2.78-1.11,3.75-2.22,0,0,3.61-6.24,6.8-11.38.83-1.25,2.91-4.02,5-4.02h3.47c1.53,0,3.33.42,1.11,4.03h0Z"/>
  <path class="st0" d="M191.84,190.71h11.52l2.36.14c1.25,0,2.77-1.11,3.47-2.5l2.36-3.47c-1.53.28-3.05.28-4.86.28-5.83,0-13.88,0-10.27-6.11l7.49-12.07c.97-1.39,2.5-2.91,3.47-3.47,0-.28.55-.42,3.75-.42,2.08,0,5.41-.55,2.5,3.89l-6.66,11.1c-.83,1.11-.55,2.22.55,2.22h4.72c.97,0,2.77-1.11,3.47-2.22l6.94-11.1c.69-1.39,2.36-2.91,3.47-3.47,0,0,.56-.42,3.74-.42,1.81,0,5.41-.55,2.5,3.88l-5.83,9.3c-.28.42-.42.55-.69,1.25l-7.35,11.93c-.83,1.25-2.36,2.78-3.47,3.47,0,0-4.86,2.77-14.57,2.77h-1.39c-9.02-.28-8.6-.83-9.16-1.25-.56-.14-1.11-.97-.97-2.08.14-.97,1.39-1.67,2.91-1.67h0Z"/>
  <path class="st0" d="M100.24,35.14c-.28,0-.28.14-.42.28-12.07,16.93-19.15,28.17-26.65,42.05l-.83,1.53-.14.56c-.69,1.39-.56,2.91.42,4.16,4.44,6.94,29.28,15.13,84.65,15.13,41.35,0,85.35-6.66,85.35-19.15,0-11.8-43.3-18.87-85.35-18.87-14.02,0-27.76,1.8-31.64,2.5,3.75-5.83,19.57-27.06,19.57-27.2q.28-.28.28-.42v-.28c-.28-.14-.42-.28-.69-.28h-44.54ZM116.34,79.69c0-2.5,15.68-6.11,40.94-6.11s40.8,3.61,40.8,6.11c0,2.77-15.54,6.24-40.8,6.24-25.26,0-40.94-3.47-40.94-6.24h0Z"/>
  <path class="st0" d="M131.61,142c7.08.14,206.22,7.08,210.66-63.56,3.61-58.43-142.94-52.87-142.94-52.87-.28,0-1.25,0-1.25.69,0,.83.42.97.97.97,40.66,0,106.72,16.24,104.63,51.21-1.67,28.31-53.29,61.61-172.08,61.61-.55,0-1.11.56-1.11.97,0,.42.42.83,1.11.97h0Z"/>
  <polygon class="st0" points="314.23 136.87 310.35 136.87 310.35 136.03 319.23 136.03 319.23 136.87 315.62 136.87 315.62 143.8 314.23 143.8 314.23 136.87"/>
  <polygon class="st0" points="321.17 136.03 322.84 136.03 325.75 142.56 328.81 136.03 330.47 136.03 330.47 143.8 329.36 143.8 329.36 137.42 329.22 137.42 326.31 143.8 325.19 143.8 322.28 137.42 322.28 143.8 321.17 143.8 321.17 136.03"/>
</svg>