<?xml version="1.0" encoding="UTF-8"?>
<svg id="Layer_1" xmlns="http://www.w3.org/2000/svg" version="1.1" viewBox="0 0 512 512">
  <!-- Generator: Adobe Illustrator 30.5.1, SVG Export Plug-In . SVG Version: 2.1.4 Build 3)  -->
  <defs>
    <style>
      .st0 {
        fill: #fff;
      }
    </style>
  </defs>
  <path class="st0" d="M306.22,237.16c-15.31,0-27.2,13.65-27.2,30.29s12.27,30.17,27.2,30.17,26.92-13.53,27.18-30.17c.26-16.65-11.87-30.29-27.18-30.29Z"/>
  <path class="st0" d="M205.73,237.16c-15.29,0-27.18,13.65-27.18,30.29s12.32,30.17,27.23,30.17,26.94-13.53,27.2-30.17c.26-16.65-11.96-30.29-27.25-30.29Z"/>
  <path class="st0" d="M511.75,266.99c.15-3.64.25-7.3.25-10.99s-.1-7.34-.25-10.99V.25h-244.76c-3.64-.15-7.3-.25-10.99-.25s-7.34.1-10.99.25H.25v244.76c-.15,3.64-.25,7.3-.25,10.99s.1,7.34.25,10.99v244.76h244.76c3.64.15,7.3.25,10.99.25s7.34-.1,10.99-.25h244.76v-244.76ZM405.88,332.17c-23.12,17.09-49.02,30.08-76.55,38.39-6.2-8.32-11.68-17.15-16.39-26.4,8.97-3.35,17.62-7.48,25.86-12.35-2.14-1.45-4.26-3.07-6.33-4.76-23.91,11.23-50.04,17.09-76.47,17.09s-52.56-5.86-76.47-17.09c-2.04,1.57-4.16,3.19-6.33,4.76,8.22,4.86,16.86,8.98,25.81,12.32-4.69,9.22-10.22,18.09-16.39,26.42-27.51-8.33-53.38-21.32-76.5-38.4-5.35-56.14,5.35-113.09,44.83-171.5,19.88-9.08,40.85-15.54,62.4-19.22,2.94,5.25,5.65,10.71,7.99,16.22,11.43-1.7,23.05-2.58,34.62-2.58s23.16.87,34.62,2.6c2.37-5.55,5.03-10.97,7.97-16.24,21.54,3.65,42.51,10.09,62.38,19.18,34.22,50.03,51.22,106.45,44.94,171.56h0Z"/>
</svg>