<?xml version="1.0" encoding="UTF-8"?>
<svg id="Facebook" xmlns="http://www.w3.org/2000/svg" version="1.1" viewBox="0 0 100.06 100">
  <!-- Generator: Adobe Illustrator 30.5.1, SVG Export Plug-In . SVG Version: 2.1.4 Build 3)  -->
  <defs>
    <style>
      .st0 {
        fill: #fff;
      }
    </style>
  </defs>
  <path class="st0" d="M.06,0v47.53c-.04.82-.06,1.64-.06,2.47s.02,1.65.06,2.47v47.53h100V0H.06ZM57,36.9c3.5,0,7.2-.1,10.7.1-.1,3.7,0,7.6-.1,11.3h-10.6v35h-15v-35c-3.1-.1-6.4,0-9.6-.1v-11.4h9.5c.1-3,0-5.7.2-8.1.2-2.4,1-4.4,2.1-6.1,2.2-3.2,5.8-5.8,10.7-6,4-.2,8.5.1,12.8.1,0,3.8.1,7.7-.1,11.4-2.1.1-4.3-.2-6.1,0-1.9.2-3.3,1.3-3.9,2.7-.9,1.7-.6,3.8-.6,6.1Z"/>
</svg>