<?xml version="1.0" encoding="UTF-8"?>
<svg id="Layer_1" xmlns="http://www.w3.org/2000/svg" version="1.1" viewBox="0 0 100 100">
  <!-- Generator: Adobe Illustrator 30.5.1, SVG Export Plug-In . SVG Version: 2.1.4 Build 3)  -->
  <defs>
    <style>
      .st0 {
        fill: #fff;
      }
    </style>
  </defs>
  <path class="st0" d="M50.7,71.9c11.7,0,21.2-.4,21.2-15.1-.2-3.2-1.5-6.1-3.8-8.6-1.8-1.9-4.3-2.4-7.2-2.4-3.1,0-6.6.6-10.3.6-7.3,0-13.7-2.1-17.5,1.9-2.3,2.4-3.6,5.3-3.6,8.5,0,13.1,9.5,15.1,21.2,15.1ZM62.7,50.2c2.4,0,4.4,3.3,4.4,7.3s-1.9,7.3-4.4,7.3-4.4-3.3-4.4-7.3,2-7.3,4.4-7.3ZM39.1,50.2c2.4,0,4.4,3.3,4.4,7.3s-2,7.3-4.4,7.3-4.4-3.3-4.4-7.3,2-7.3,4.4-7.3Z"/>
  <path class="st0" d="M0,0v100h100V0H0ZM23.2,23.5s4.3-1.4,14.2,5.3c4.1-1.1,8.6-1.7,12.9-1.7,4,0,8,.5,11.7,1.4,6.9-4.6,11-5.2,12.7-5.2.7,0,1,.1,1,.1,2.4,6,1.5,10.6.9,12.7,3.7,3.7,6,8.6,6,14.7.1,4.4-.2,8.2-.8,10.4-.6,2.2-.8,2.9-1.1,3.5l-.2.4c-2.7,6.2-8.7,10.2-21.1,11.5h-17.6c-11.6-1.3-18.2-5.3-21.5-11.4,0,0-.1-.2-.2-.4-.3-.6-.6-1.3-.9-2-.2-.3-.2-.2-.2-.5-1.2-3.3-1.7-7.1-1.7-11.4,0-5.6,2-10.2,5.4-13.8-.5-1.3-2.3-6.6.5-13.6Z"/>
</svg>