<?xml version="1.0" encoding="UTF-8"?>
<svg id="Layer_1" xmlns="http://www.w3.org/2000/svg" version="1.1" viewBox="0 0 500 500">
  <!-- Generator: Adobe Illustrator 30.5.1, SVG Export Plug-In . SVG Version: 2.1.4 Build 3)  -->
  <defs>
    <style>
      .st0 {
        fill: #fff;
      }
    </style>
  </defs>
  <path class="st0" d="M0,0v500h500V0H0ZM368.92,320c-25.08,0-47.07-13.16-59.45-32.96,6.72-10.75,10.61-23.44,10.61-37.04s-3.89-26.3-10.61-37.04c12.38-19.78,34.38-32.96,59.45-32.96,38.7,0,70.08,31.34,70.08,70s-31.38,70-70.08,70ZM190.53,287.04c-12.38,19.78-34.38,32.96-59.45,32.96-38.7,0-70.08-31.34-70.08-70s31.38-70,70.08-70c25.08,0,47.07,13.16,59.45,32.96-6.72,10.75-10.61,23.44-10.61,37.04s3.89,26.3,10.61,37.04ZM190.55,212.96c12.38-19.78,34.38-32.96,59.45-32.96s47.07,13.16,59.45,32.96c-6.72,10.75-10.61,23.44-10.61,37.04s3.89,26.3,10.61,37.04c-12.38,19.78-34.38,32.96-59.45,32.96s-47.07-13.16-59.45-32.96c6.72-10.75,10.61-23.44,10.61-37.04s-3.89-26.3-10.61-37.04Z"/>
</svg>