<?xml version="1.0" encoding="UTF-8"?>
<svg id="Layer_1" xmlns="http://www.w3.org/2000/svg" version="1.1" viewBox="0 0 500 500">
  <defs>
    <style>
      .st0 {
        fill: #FFFFFF;
        fill-rule: evenodd;
      }
    </style>
  </defs>
  <path class="st0" d="M250,0C111.93,0,0,111.93,0,250s111.93,250,250,250,250-111.93,250-250S388.07,0,250,0ZM368.92,320c-25.09,0-47.08-13.17-59.46-32.97-12.38,19.79-34.38,32.97-59.46,32.97s-47.08-13.17-59.46-32.97c-12.38,19.79-34.38,32.97-59.46,32.97-38.7,0-70.08-31.34-70.08-70s31.38-70,70.08-70c25.09,0,47.08,13.17,59.46,32.97,12.38-19.79,34.38-32.97,59.46-32.97s47.08,13.17,59.46,32.97c12.38-19.79,34.38-32.97,59.46-32.97,38.7,0,70.08,31.34,70.08,70s-31.38,70-70.08,70Z"/>
  <path id="Overlap" class="st0" d="M309.46,212.94c6.73,10.75,10.62,23.45,10.62,37.06s-3.89,26.31-10.62,37.06c-6.73-10.75-10.62-23.45-10.62-37.06s3.89-26.31,10.62-37.06h0Z"/>
  <path id="Overlap1" data-name="Overlap" class="st0" d="M190.54,287.06c-6.73-10.75-10.62-23.45-10.62-37.06s3.89-26.31,10.62-37.06c6.73,10.75,10.62,23.45,10.62,37.06s-3.89,26.31-10.62,37.06h0Z"/>
</svg>