<?xml version="1.0" encoding="UTF-8"?>
<svg id="Layer_1" xmlns="http://www.w3.org/2000/svg" version="1.1" viewBox="0 0 100 100">
  <!-- Generator: Adobe Illustrator 30.5.1, SVG Export Plug-In . SVG Version: 2.1.4 Build 3)  -->
  <defs>
    <style>
      .st0 {
        fill: #fff;
      }
    </style>
  </defs>
  <path class="st0" d="M.05,0v48.01c-.03.66-.05,1.32-.05,1.99s.02,1.33.05,1.99v48.01h99.95V0H.05ZM62.1,50.4c-1.7-.9-4-.6-5.5,0-3.8,1.7-3.5,7.1-3.5,13v11.9h-10.5v-33.8h10.1v4.6c.4-.3.5-.7.8-1.1,1.8-2.4,5-4.4,9.1-4.4,5.2,0,8.9,1.8,10.8,5.1,2,3.5,2,8.4,2,13.9v15.7h-10.5v-12.1c0-5.1.7-11-2.8-12.8ZM27.3,35.9c-1.6-1.1-2.9-3.4-2.6-6.1.3-2,1.7-3.7,3.2-4.5.5-.3,1.2-.5,2-.5,4-.5,7,2.3,7,6.1-.1,4.6-5.4,7.8-9.6,5ZM36.1,41.5c-.1,11.2-.1,22.5-.1,33.8h-10.5v-33.6c0-.1,0-.2.1-.2h10.5Z"/>
</svg>