<?xml version="1.0" encoding="UTF-8"?>
<svg id="Layer_1" xmlns="http://www.w3.org/2000/svg" version="1.1" viewBox="0 0 800 800">
  <!-- Generator: Adobe Illustrator 29.4.0, SVG Export Plug-In . SVG Version: 2.1.0 Build 152)  -->
  <defs>
    <style>
      .st0 {
        fill: #fff;
      }
    </style>
  </defs>
  <path class="st0" d="M400,0C179.09,0,0,179.09,0,400s179.09,400,400,400,400-179.09,400-400S620.91,0,400,0ZM578.52,458.59c-5.47,28.2-49.14,59.06-99.22,65.08-26.17,3.05-51.88,5.94-79.3,4.69-44.84-2.03-80.23-10.7-80.23-10.7,0,4.14.23,8.28.78,12.42,5.86,44.3,43.91,46.95,80,48.2,36.41,1.25,68.83-8.98,68.83-8.98l1.48,32.89s-25.47,13.67-70.86,16.17c-25.08,1.33-56.09-.7-92.27-10.23-78.44-20.78-91.95-104.38-93.98-189.22-.62-25.23-.23-48.98-.23-68.83,0-86.8,56.87-112.19,56.87-112.19,28.67-13.2,77.89-18.75,128.98-19.14h1.25c51.09.47,100.31,5.94,128.98,19.14,0,0,56.88,25.47,56.88,112.19,0,0,.7,64.06-7.97,108.52Z"/>
  <path class="st0" d="M458.52,286.64c-21.33,0-37.42,8.12-48.12,24.53l-10.39,17.34-10.31-17.34c-10.7-16.33-26.8-24.53-48.12-24.53-18.36,0-33.2,6.41-44.53,19.06-11.02,12.66-16.48,29.69-16.48,51.17v105h41.64v-101.95c0-21.48,9.06-32.42,27.11-32.42,20,0,30,12.89,30,38.52v55.86h41.41v-55.86c0-25.55,10-38.52,30-38.52,18.05,0,27.11,10.94,27.11,32.42v101.95h41.64v-105c0-21.48-5.47-38.59-16.41-51.17-11.33-12.58-26.17-19.06-44.53-19.06Z"/>
</svg>