<?xml version="1.0" encoding="UTF-8"?>
<svg id="Layer_1" xmlns="http://www.w3.org/2000/svg" version="1.1" viewBox="0 0 128 57.5">
  <!-- Generator: Adobe Illustrator 29.0.1, SVG Export Plug-In . SVG Version: 2.1.0 Build 192)  -->
  <defs>
    <style>
      .st0 {
        fill: #fff;
        fill-rule: evenodd;
      }
    </style>
  </defs>
  <path class="st0" d="M7.5,7.6c0-1.9,1.6-3.5,3.5-3.5h106c1.9,0,3.5,1.6,3.5,3.5v42c0,1.9-1.6,3.5-3.5,3.5H11c-1.9,0-3.5-1.6-3.5-3.5V7.6ZM11,5.1c-1.4,0-2.5,1.1-2.5,2.5v42c0,1.4,1.1,2.5,2.5,2.5h106c1.4,0,2.5-1.1,2.5-2.5V7.6c0-1.4-1.1-2.5-2.5-2.5H11Z"/>
  <path class="st0" d="M10.5,13.6c0-1.4,1.1-2.5,2.5-2.5h102c1.4,0,2.5,1.1,2.5,2.5v34c0,1.4-1.1,2.5-2.5,2.5H13c-1.4,0-2.5-1.1-2.5-2.5V13.6ZM13,12.1c-.8,0-1.5.7-1.5,1.5v34c0,.8.7,1.5,1.5,1.5h102c.8,0,1.5-.7,1.5-1.5V13.6c0-.8-.7-1.5-1.5-1.5H13Z"/>
  <path class="st0" d="M31,23.1h-6c-.3,0-.5.2-.5.5v5c0,.3-.2.5-.5.5h-5c-.3,0-.5.2-.5.5v6c0,.3.2.5.5.5h5c.3,0,.5.2.5.5v5c0,.3.2.5.5.5h6c.3,0,.5-.2.5-.5v-5c0-.3.2-.5.5-.5h5c.3,0,.5-.2.5-.5v-6c0-.3-.2-.5-.5-.5h-5c-.3,0-.5-.2-.5-.5v-5c0-.3-.2-.5-.5-.5ZM25,22.1h6c.8,0,1.5.7,1.5,1.5v4.5h4.5c.8,0,1.5.7,1.5,1.5v6c0,.8-.7,1.5-1.5,1.5h-4.5v4.5c0,.8-.7,1.5-1.5,1.5h-6c-.8,0-1.5-.7-1.5-1.5v-4.5h-4.5c-.8,0-1.5-.7-1.5-1.5v-6c0-.8.7-1.5,1.5-1.5h4.5v-4.5c0-.8.7-1.5,1.5-1.5Z"/>
  <path class="st0" d="M44.5,33.6c0-.8.7-1.5,1.5-1.5h28c.8,0,1.5.7,1.5,1.5v8c0,.8-.7,1.5-1.5,1.5h-28c-.8,0-1.5-.7-1.5-1.5v-8ZM46,33.1c-.3,0-.5.2-.5.5v8c0,.3.2.5.5.5h28c.3,0,.5-.2.5-.5v-8c0-.3-.2-.5-.5-.5h-28Z"/>
  <path class="st0" d="M80.5,32.6c0-.8.7-1.5,1.5-1.5h10c.8,0,1.5.7,1.5,1.5v10c0,.8-.7,1.5-1.5,1.5h-10c-.8,0-1.5-.7-1.5-1.5v-10ZM82,32.1c-.3,0-.5.2-.5.5v10c0,.3.2.5.5.5h10c.3,0,.5-.2.5-.5v-10c0-.3-.2-.5-.5-.5h-10Z"/>
  <path class="st0" d="M95.5,32.6c0-.8.7-1.5,1.5-1.5h10c.8,0,1.5.7,1.5,1.5v10c0,.8-.7,1.5-1.5,1.5h-10c-.8,0-1.5-.7-1.5-1.5v-10ZM97,32.1c-.3,0-.5.2-.5.5v10c0,.3.2.5.5.5h10c.3,0,.5-.2.5-.5v-10c0-.3-.2-.5-.5-.5h-10Z"/>
  <path class="st0" d="M44.5,19.6c0-.8.7-1.5,1.5-1.5h28c.8,0,1.5.7,1.5,1.5v3c0,.8-.7,1.5-1.5,1.5h-28c-.8,0-1.5-.7-1.5-1.5v-3ZM46,19.1c-.3,0-.5.2-.5.5v3c0,.3.2.5.5.5h28c.3,0,.5-.2.5-.5v-3c0-.3-.2-.5-.5-.5h-28Z"/>
  <path class="st0" d="M44.5,26.6c0-.8.7-1.5,1.5-1.5h28c.8,0,1.5.7,1.5,1.5v3c0,.8-.7,1.5-1.5,1.5h-28c-.8,0-1.5-.7-1.5-1.5v-3ZM46,26.1c-.3,0-.5.2-.5.5v3c0,.3.2.5.5.5h28c.3,0,.5-.2.5-.5v-3c0-.3-.2-.5-.5-.5h-28Z"/>
  <path class="st0" d="M48.5,37.6c0-.8.7-1.5,1.5-1.5h6c.8,0,1.5.7,1.5,1.5s-.7,1.5-1.5,1.5h-6c-.8,0-1.5-.7-1.5-1.5ZM50,37.1c-.3,0-.5.2-.5.5s.2.5.5.5h6c.3,0,.5-.2.5-.5s-.2-.5-.5-.5h-6Z"/>
  <path class="st0" d="M62.5,37.6c0-.8.7-1.5,1.5-1.5h6c.8,0,1.5.7,1.5,1.5s-.7,1.5-1.5,1.5h-6c-.8,0-1.5-.7-1.5-1.5ZM64,37.1c-.3,0-.5.2-.5.5s.2.5.5.5h6c.3,0,.5-.2.5-.5s-.2-.5-.5-.5h-6Z"/>
  <path class="st0" d="M44.5,47.6c0-.8.7-1.5,1.5-1.5h28c.8,0,1.5.7,1.5,1.5v2c0,.3-.2.5-.5.5h-30c-.3,0-.5-.2-.5-.5v-2ZM46,47.1c-.3,0-.5.2-.5.5v1.5h29v-1.5c0-.3-.2-.5-.5-.5h-28Z"/>
  <path class="st0" d="M75.5,15.6c0,.8-.7,1.5-1.5,1.5h-28c-.8,0-1.5-.7-1.5-1.5v-4c0-.3.2-.5.5-.5h30c.3,0,.5.2.5.5v4ZM74,16.1c.3,0,.5-.2.5-.5v-3.5h-29v3.5c0,.3.2.5.5.5h28Z"/>
  <path class="st0" d="M87,34.1c-1.9,0-3.5,1.6-3.5,3.5s1.6,3.5,3.5,3.5,3.5-1.6,3.5-3.5-1.6-3.5-3.5-3.5ZM82.5,37.6c0-2.5,2-4.5,4.5-4.5s4.5,2,4.5,4.5-2,4.5-4.5,4.5-4.5-2-4.5-4.5Z"/>
  <path class="st0" d="M102,34.1c-1.9,0-3.5,1.6-3.5,3.5s1.6,3.5,3.5,3.5,3.5-1.6,3.5-3.5-1.6-3.5-3.5-3.5ZM97.5,37.6c0-2.5,2-4.5,4.5-4.5s4.5,2,4.5,4.5-2,4.5-4.5,4.5-4.5-2-4.5-4.5Z"/>
</svg>