<?xml version="1.0" encoding="UTF-8"?>
<svg id="Layer_1" xmlns="http://www.w3.org/2000/svg" version="1.1" viewBox="0 0 2500 2500">
  <!-- Generator: Adobe Illustrator 29.4.0, SVG Export Plug-In . SVG Version: 2.1.0 Build 152)  -->
  <defs>
    <style>
      .st0 {
        fill: #fff;
      }
    </style>
  </defs>
  <path class="st0" d="M1585.34,1264.5c-46.72-19.34-100.47-8.62-136.22,27.12s-46.47,89.5-27.12,136.22c19.38,46.69,64.94,77.16,115.5,77.16l-1.25,5c16.94.19,33.75-3.09,49.41-9.59,15.66-6.53,29.81-16.16,41.62-28.31,11.81-12.16,21-26.59,27.06-42.44,6.07-15.83,8.84-32.72,8.16-49.66,0-50.56-30.47-96.12-77.16-115.5Z"/>
  <path class="st0" d="M1536.06,1665c-8.97-.12-17.59,3.34-24.81,8.75-18.8,13.48-38.7,25.35-59.5,35.47-20.8,10.13-42.42,18.48-64.62,24.97-22.19,6.47-44.91,11.06-67.88,13.72-23,2.66-46.16,3.34-69.25,2.09-23.06,1.03-46.19.09-69.09-2.78-22.91-2.85-45.54-7.66-67.62-14.37-22.12-6.69-43.59-15.25-64.25-25.56-20.66-10.31-40.41-22.37-59.03-36.03-6.47-5.31-14.69-8.03-23.06-7.62-8.37.41-16.28,3.94-22.22,9.84-5.91,5.94-9.44,13.84-9.84,22.22-.41,8.37,2.31,16.59,7.62,23.06,21.97,16.56,45.31,31.19,69.78,43.75s50,22.97,76.25,31.16c26.25,8.19,53.16,14.09,80.44,17.69,27.28,3.56,54.81,4.78,82.28,3.66,27.47,1.12,55-.09,82.28-3.66,54.64-7.19,107.64-23.71,156.69-48.84,24.47-12.56,47.81-27.19,69.78-43.75l-.81,4.16c6.41-6.25,10.06-14.78,10.19-23.72.12-8.97-3.34-17.59-9.59-24-6.25-6.41-14.78-10.06-23.72-10.19Z"/>
  <path class="st0" d="M1250,0C559.64,0,0,559.64,0,1250s559.64,1250,1250,1250,1250-559.64,1250-1250S1940.36,0,1250,0ZM2077.38,1300.75c-4.5,16.53-11.31,32.38-20.25,47-8.91,14.62-19.84,27.94-32.47,39.53-12.62,11.59-26.81,21.34-42.16,28.97.34,4.56.63,9.16.78,13.75.38,9.16.38,18.34,0,27.5-.16,4.59-.44,9.19-.78,13.75,0,280-326.25,507.5-728.75,507.5s-728.75-227.5-728.75-507.5c-.34-4.56-.62-9.16-.78-13.75-.38-9.16-.38-18.34,0-27.5.16-4.59.44-9.19.78-13.75-48.65-22.36-85.04-64.95-99.53-116.5-14.47-51.57-5.56-106.89,24.38-151.31,29.91-44.41,77.82-73.44,131.03-79.38,53.22-5.96,106.37,11.74,145.38,48.44,35.78-24.25,73.26-45.88,112.16-64.72,38.91-18.81,79.13-34.81,120.34-47.81,41.22-13,83.34-22.97,126-29.88,42.66-6.91,85.78-10.69,129-11.34l92.5-433.75c1.03-5.03,3.06-9.78,5.97-14.03,2.88-4.22,6.59-7.84,10.88-10.62,4.31-2.78,9.12-4.69,14.19-5.62,5.03-.91,10.22-.81,15.22.28l306.25,61.25c30.91-53.09,95.78-75.84,153.06-53.72s90.03,82.59,77.22,142.66c-12.78,60.06-67.34,101.94-128.66,98.78-61.34-3.16-111.31-50.41-117.88-111.47l-267.5-56.25-81.25,390c42.69.91,85.28,4.91,127.41,11.94,84.36,14.06,166.24,40.23,243.12,77.69,38.4,18.69,75.4,40.12,110.72,64.12,25.39-24.38,57.3-40.89,91.88-47.53,34.57-6.67,70.33-3.18,102.97,10.03,32.64,13.21,60.76,35.57,80.97,64.41,20.22,28.83,31.66,62.9,32.94,98.09.25,17.12-1.88,34.22-6.38,50.75Z"/>
  <path class="st0" d="M1074.25,1422.84c19.34-46.72,8.62-100.47-27.12-136.22-35.75-35.75-89.5-46.47-136.22-27.12-46.69,19.38-77.16,64.94-77.16,115.5,0,16.41,3.22,32.66,9.5,47.84,6.31,15.16,15.5,28.94,27.12,40.53,11.59,11.62,25.38,20.81,40.53,27.12,15.17,6.27,31.43,9.5,47.84,9.5,50.56,0,96.13-30.47,115.5-77.16Z"/>
</svg>