<?xml version="1.0" encoding="UTF-8"?>
<svg id="Layer_1" xmlns="http://www.w3.org/2000/svg" version="1.1" viewBox="0 0 513 513">
  <defs>
    <style>
      .st0 {
        fill: #fff;
        stroke: #000;
        stroke-miterlimit: 10;
      }
    </style>
  </defs>
  <path class="st0" d="M292.61,131.26c-3.2-.04-6.11,1.55-7.48,4.62l-75.43,168.6-32.21,71.98c-2.96,6.61,3.61,13.8,9.76,14.17,3.98.24,6.52-1.79,8.13-5.3l13.98-30.35,83.76-187.37c4.12-6.98,6.77-13.87,10-21.14,1.59-3.57.88-7.79-1.54-10.87-1.87-2.38-5.28-4.27-8.98-4.32Z"/>
  <path class="st0" d="M256.5.5C115.12.5.5,115.12.5,256.5s114.62,256,256,256,256-114.62,256-256S397.88.5,256.5.5ZM356.92,132.43l-63.51,141.03-67.24,149.37c-3.77,8.38-9.28,14.92-16.95,19.42-16.83,9.87-36.95,8.84-51.71-4.11l-2.61-2.73c-8.32-15.04-8.48-32.53-.55-48l54.98-122.07,72.98-162.19c3.01-6.69,5.77-12.69,11.06-17.38,8.02-7.13,19.3-14.98,29.28-14.22,13.66,1.05,25.58,9.47,32.01,20.23,7.66,12.82,8.28,27.3,2.27,40.65Z"/>
</svg>