<?xml version="1.0" encoding="UTF-8"?>
<svg id="Layer_1" xmlns="http://www.w3.org/2000/svg" version="1.1" viewBox="0 0 550 550">
  <!-- Generator: Adobe Illustrator 30.1.0, SVG Export Plug-In . SVG Version: 2.1.1 Build 136)  -->
  <defs>
    <style>
      .st0 {
        fill: #fff;
      }
    </style>
  </defs>
  <path class="st0" d="M532.15,329c0,42.66.12,84.83-.09,126.99-.07,14.31-2.9,28.03-11.22,40.19-10.47,15.31-24.52,24.96-42.93,28.16-4.29.74-8.56,1.01-12.89,1.01-125.33-.02-250.65-.02-375.98-.02-31.04,0-58.5-23.14-63.43-53.69-.84-5.19-.96-10.55-.96-15.83-.05-121.33,0-242.65-.07-363.98,0-15.36,2.86-29.81,12.37-42.23,13-16.99,30.34-26.65,51.76-26.69,126.49-.24,252.98-.37,379.47.08,33.28.12,60.9,26.66,63.2,60.11.92,13.33.67,26.62.7,39.93.12,68.5.07,136.99.07,205.99M510.05,388.5c-.01-98.31,0-196.63-.07-294.94,0-4.81.17-9.68-.94-14.41-4.81-20.52-22.96-34.72-44.45-34.72-124.81,0-249.62,0-374.43.04-9.28,0-17.67,3.14-25.2,8.36-14.04,9.73-18.72,23.94-18.72,40.29.01,120.81-.02,241.62.08,362.43,0,6.28.04,12.75,2.33,18.74,7.09,18.57,22.95,29.38,42.76,29.38,124.31,0,248.62,0,372.93.04,3.85,0,7.63-.35,11.39-1.08,17.97-3.49,33.63-21.81,33.86-40.15.31-24.32.32-48.65.45-73.97Z"/>
  <path class="st0" d="M158.87,473.32c-2.84,4.55-7.54,1.9-10.16,1.43-15.7-2.79-31.42-5.85-45.93-13.07-10.83-5.39-15.8-15.46-20.65-25.49-7.28-15.04-11.9-31.07-16.41-47.11-.94-3.35-.11-5.05,3-6.65,17.64-9.04,35.17-18.3,52.73-27.48,1.61-.84,3.23-1.66,5.04-1.73,3.88,6.62,3.65,9.32-1.91,15.43,8.68-1.07,7.95,5.48,9.24,10.24,1.96,7.23,4.09,14.38,6.54,21.47,6.11,17.64,19.27,26.5,36.61,30.35,6.33,1.41,12.74,2.56,19.17,3.36,5.3.66,9.55,3.31,13.81,6.07,1.47.95,2.95,2.16,4.52,1.14,3.02-1.95,5.86-1.81,9.1.47.73-4.48,3.28-5.1,7.04-4.92,31.14,1.5,62.3,1.09,93.46,1,9.67-.03,19.32-.51,28.88-1.95,3.95-.59,5.02,1.31,5.31,4.64.14,1.6-1.13,3.23.48,5.29,3.95-1.46,5.01-5.62,6.15-8.63,1.2-3.19,2.97-3.95,5.64-4.45,14.02-2.62,27.55-6.62,39.6-14.52,8.02-5.26,14.39-11.77,15.89-21.91.7-4.72-.59-8.99-2.32-13.07-7.29-17.17-20.81-28.57-36.12-38.22-.52-.33-1.24-.35-1.84-.51-2.22,1.78-2.66,4.32-3.43,6.65-3.77,11.38-8.1,22.56-12.35,33.76-1.7,4.47-4.75,6.52-8.84,7.95-8.27,2.91-16.94,3.6-25.55,4.34-20.42,1.77-40.91,2.77-61.4,1.81-25.41-1.19-50.9-1.5-76.04-6.49-9.37-1.86-14.34-6.32-16.7-15.67-8.07-31.94-7.5-63.97-2.16-96.12.67-4.05-.14-5.93-4.08-7.47-14.19-5.55-27.57-12.38-38.38-23.64-13.34-13.89-17.05-29.92-12.51-48.32,5.76-23.35,18.68-42.64,34.71-59.89,37.95-40.86,85.08-65,139.66-75.01,5.73-1.05,11.76-3.09,17.42.83.95.66,2.75.87,3.11-.35,1.13-3.85,4.19-3.11,6.88-3.36,24.26-2.29,48.19.42,72.07,4.42,4.18.7,6.64,3.15,9.1,6.76,2.35-3.9,5.28-3.63,8.67-2.43,5.49,1.95,11.09,3.57,16.67,5.27,2.47.75,3.67,1.96,2.65,4.75-9.1,25.04-18.14,50.1-27.22,75.14-.27.75-.84,1.4-1.58,2.62-6.27-2.67-13.57-4.09-18.37-8.34-4.01-3.55-5.84-7.79-11.43-3.03-.46.39-1.89-.32-2.85-.58-24.41-6.73-49.31-9.89-74.58-8.62-43.37,2.18-83.59,14-118.58,40.72-9.18,7.01-17.6,14.82-22.87,25.39-4.63,9.28-2.77,17.06,5.42,23.42,8.16,6.33,18.04,8.35,27.61,11.13,2.79.81,3.36-1.59,4.34-3.17,8.55-13.78,19.47-25.34,32.7-34.67,19.32-13.61,41.18-19.93,64.45-22.07,1.21-.11,2.47-.03,3.26.9,4.23,4.99,9.57,5.48,15.48,4.11.94-.22,1.97-.03,2.95-.03,1.55-1.1.17-2.92,1.16-4.3.31-.13.77-.53,1.19-.49,22.36,1.91,44,6.86,64.91,15.06,4.12,1.61,5.07,3.49,3.41,7.84-3.73,9.79-6.81,19.83-10.13,29.78-.89,2.66-1.48,5.44-3.29,7.96-9.13-2.34-18.06-4.97-27.14-6.89-18.77-3.96-37.72-6.8-56.97-5.71-15.24.86-30.12,3.61-43.58,11.38-11.2,6.47-19.81,15.5-23.86,27.88-8.37,25.61-8.13,51.33.4,76.95,3.55,10.65,10.51,16.73,21.81,18.6,26.66,4.43,53.27,5.16,79.97.55,6.81-1.18,11.24-4.36,13.99-11.06,3.56-8.65,6.24-17.56,9.32-26.35,1.08-3.08,0-4.53-2.84-5.7-9.25-3.81-18.53-7.5-28.09-10.42-6.56-2-8.3-1.01-9.78,5.75-.88,4.05-1.6,8.18-1.96,12.3-.26,2.99-1.46,4.19-4.38,3.92-10.94-1-21.87-1.99-32.81-2.94-2.22-.19-2.63-1.63-2.66-3.46-.2-15.5-.13-31,3.3-46.21,2.94-13.02,8.78-16.45,22.06-14.58,32.93,4.63,63.06,17.43,92.92,31.16,17.46,8.03,33.92,17.69,49.61,28.83,6.05,4.3,9.79,10.05,13.77,15.83.96,1.39,1.67,3.34,3.32,3.51,8.21.85,12.84,6.8,17.55,12.33,11.5,13.5,22.2,27.48,25.33,45.7,3.11,18.09-2.95,32.74-16.3,44.71-13.61,12.2-30.19,18.71-47.35,23.9-16.93,5.12-34.35,7.96-51.87,10.15-2.83.35-5.82,1.13-8.34-1.68-1.8-2.01-4.12-1.13-5.54.88-1.64,2.32-3.8,2.84-6.44,3.04-37.11,2.89-74.24,2.54-111.39,1.08-5.66-.22-11.33-.32-16.99-.61-3.99-.2-8.15-.25-10.08-6.08-1.96,5.58-5.52,5.13-9.46,4.64-13.86-1.72-27.75-3.26-41.64-4.68-3.05-.31-4.85-1.7-6.24-4.42M392.11,100.95c3.86-6.34,2.06-12.82.45-19.29-5.71,3.01-6.88,16.02-1.79,20.09.13.1.59-.21,1.34-.8M221.14,123.51c-1.28-.26-3.22-.74-3.27.88-.08,2.79.31,5.75,3.25,8.17,2.32-2.98,2.16-5.73.02-9.04M158.45,447.14c-.52-2.39-.55-5.07-3.31-6.46-1.29,1.87-1.81,3.77-1.49,5.4.49,2.52,1.56,5.33,4.8,1.06M200.48,121.39c1.58-2.31.18-3.75-1.39-5.44-2.08,1.51-3.47,3.13-2.53,5.46.71,1.76,2.2.55,3.92-.02M393.44,109.49c-2.23,2.67-.85,4.3,1.73,6.06,1.38-2.78,3.35-5.18-1.73-6.06Z"/>
</svg>