<?xml version="1.0" encoding="UTF-8"?>
<svg id="Layer_1" xmlns="http://www.w3.org/2000/svg" version="1.1" viewBox="0 0 256 256">
  <!-- Generator: Adobe Illustrator 29.4.0, SVG Export Plug-In . SVG Version: 2.1.0 Build 152)  -->
  <defs>
    <style>
      .st0 {
        fill: #fff;
      }
    </style>
  </defs>
  <path class="st0" d="M1.48,132.08c-.05-1.4-.08-2.81-.08-4.23,0,1.41.03,2.82.08,4.23Z"/>
  <path class="st0" d="M1.75,137.18c-.1-1.37-.17-2.74-.23-4.12.06,1.38.13,2.75.23,4.12Z"/>
  <path class="st0" d="M127.86,1.41C58.86,1.41,2.77,56.67,1.44,125.36c.06-2.4.19-4.77.37-7.14l66.25,27.98c5.99-4.21,13.3-6.68,21.18-6.68.83,0,1.65.03,2.46.08l30.03-44c0-26.69,21.63-48.32,48.32-48.32s48.32,21.64,48.32,48.32-21.63,48.32-48.32,48.32c-.37,0-.74,0-1.11-.01l-42.86,30.48h0c.04.67.06,1.34.06,2.02,0,20.38-16.52,36.9-36.9,36.9-18.12,0-33.19-13.07-36.31-30.29l-46.27-19.07c-2.55-8.58-4.23-17.53-4.91-26.76,4.77,65.48,59.41,117.13,126.11,117.13s126.45-56.61,126.45-126.45S197.69,1.41,127.86,1.41Z"/>
  <path class="st0" d="M88.39,196.12c-6.42,0-17.54-5.72-23.83-8.31,4.31,9.32,13.74,15.78,24.67,15.78,15.01,0,27.17-12.16,27.17-27.17s-12.16-27.17-27.17-27.17c-3.43,0-6.71.64-9.73,1.8,12.43,5.25,29,8,29,24.96,0,11.11-9.01,20.12-20.12,20.12Z"/>
  <path class="st0" d="M202.17,95.46c0-17.66-14.31-31.97-31.97-31.97s-31.97,14.31-31.97,31.97,14.31,31.97,31.97,31.97,31.97-14.31,31.97-31.97ZM145.78,95.46c0-13.49,10.93-24.42,24.42-24.42s24.42,10.94,24.42,24.42-10.93,24.42-24.42,24.42-24.42-10.93-24.42-24.42Z"/>
</svg>