<?xml version="1.0" encoding="UTF-8"?>
<svg id="Layer_1" xmlns="http://www.w3.org/2000/svg" version="1.1" viewBox="0 0 250 250">
  <!-- Generator: Adobe Illustrator 30.5.1, SVG Export Plug-In . SVG Version: 2.1.4 Build 3)  -->
  <defs>
    <style>
      .st0 {
        fill: #fff;
      }
    </style>
  </defs>
  <path class="st0" d="M97.89,146.97c-3.16,0-6.18.62-8.97,1.76,11.45,5.12,26.72,7.81,26.72,24.35,0,10.84-8.3,19.63-18.53,19.63-5.92-.01-16.16-5.59-21.95-8.12,3.97,9.09,12.66,15.4,22.73,15.4,13.83,0,25.04-11.86,25.04-26.51s-11.2-26.51-25.04-26.51Z"/>
  <path class="st0" d="M172.5,63.29c-16.27,0-29.46,13.96-29.46,31.19s13.19,31.19,29.46,31.19,29.46-13.96,29.46-31.19-13.19-31.19-29.46-31.19ZM172.5,118.31c-12.43,0-22.5-10.66-22.5-23.83s10.07-23.83,22.5-23.83,22.5,10.67,22.5,23.83-10.07,23.83-22.5,23.83Z"/>
  <path class="st0" d="M0,0v250h250V0H0ZM172.36,141.48h-1.02l-39.49,29.96c.04.66.06,1.32.06,1.99,0,20.03-15.22,36.27-34,36.27-16.7,0-30.58-12.85-33.46-29.78l-42.18-18.54c-3.31-10.55-5.1-21.78-5.1-33.42,0-3.89.2-7.75.59-11.54v-.02s60.62,27.32,60.62,27.32c5.52-4.14,12.26-6.57,19.52-6.57.76,0,1.52.03,2.27.08l27.67-43.25c0-26.24,19.93-47.5,44.52-47.5s44.52,21.27,44.52,47.5-19.93,47.5-44.52,47.5Z"/>
</svg>