<?xml version="1.0" encoding="UTF-8"?>
<svg id="YouTube" xmlns="http://www.w3.org/2000/svg" version="1.1" viewBox="0 0 100 100">
  <!-- Generator: Adobe Illustrator 29.0.1, SVG Export Plug-In . SVG Version: 2.1.0 Build 192)  -->
  <defs>
    <style>
      .st0 {
        fill: #fff;
      }
    </style>
  </defs>
  <path class="st0" d="M52.4,52.1c-6.6.4-8.8,3.6-8.7,6.5.2,3.9,4.4,5.7,8.4,5.5,4-.2,8.4-1.8,9.2-11.3-2.1-.4-4.3-.7-6.7-.7s-1.5,0-2.2,0Z"/>
  <path class="st0" d="M50.4.7C22.9.7.7,22.9.7,50.4s22.2,49.6,49.6,49.6,49.6-22.2,49.6-49.6S77.8.7,50.4.7ZM31.8,73.3c4.3,5.5,11,8.3,19.8,8.4,8,0,13.2-2,17.6-6.3,5-5,4.9-11.1,3.3-14.8-.9-2.2-2.6-4-4.9-5.4-.6,4.2-1.8,7.5-3.8,10-2.6,3.4-6.4,5.2-11.2,5.5-3.6.2-7.2-.7-9.9-2.5-3.2-2.1-5.1-5.4-5.3-9.2-.4-7.5,5.5-12.8,14.7-13.4,3.3-.2,6.3,0,9.2.4-.4-2.3-1.1-4.1-2.3-5.4-1.6-1.8-4-2.7-7.2-2.8,0,0,0,0,0,0-2.6,0-6,.7-8.3,4.1l-5.3-3.7c3-4.5,7.8-7,13.6-7s0,0,.1,0c9.7,0,15.5,6.1,16,16.7.3.1.7.3,1,.4,4.5,2.2,7.8,5.5,9.6,9.5,2.4,5.6,2.6,14.8-4.7,22.2-5.6,5.6-12.4,8.1-22.1,8.2h0c-10.9,0-19.2-3.7-24.8-10.9-5-6.3-7.6-15.2-7.7-26.2h0s0,0,0,0c0-11.1,2.7-19.9,7.7-26.2,5.6-7.1,14-10.8,24.8-10.9h0c10.9,0,19.3,3.7,25.1,10.8,2.8,3.5,4.9,7.7,6.3,12.6l-6.2,1.7c-1.1-4-2.8-7.4-5-10.1-4.5-5.5-11.3-8.4-20.2-8.5-8.8,0-15.5,2.9-19.8,8.4-4.1,5.2-6.2,12.6-6.2,22.2,0,9.5,2.2,17,6.2,22.2Z"/>
</svg>