<?xml version="1.0" encoding="UTF-8"?>
<svg id="icons" xmlns="http://www.w3.org/2000/svg" version="1.1" viewBox="0 0 50 50">
  <!-- Generator: Adobe Illustrator 30.5.1, SVG Export Plug-In . SVG Version: 2.1.4 Build 3)  -->
  <defs>
    <style>
      .st0 {
        fill: #fff;
      }
    </style>
  </defs>
  <path class="st0" d="M0,0v50h50V0H0ZM21.5,37.6c.9,0,1.8-.2,2.5-.7,1.5-.9,2.5-2.4,2.6-4.1V8.1h6.1v1.5c.2,1.1.7,2.7,2,4.2.5.6,1.1,1.1,1.8,1.5.2.1.5.3.7.4,1.6.8,3.1,1,3.9.9v6.1l.4.1s-2.2,0-3.8-.5c-2.2-.6-3.7-1.5-3.7-1.5,0,0-1-.7-1.1-.7v12.6c0,.7-.2,2.4-.7,3.9-.5,1.2-1.2,2.4-2.1,3.4,0,0-1.4,1.7-3.8,2.8-2.2,1-4.1,1-4.6,1,0,0-3.3.1-6.3-1.9-1-.7-1.9-1.5-2.7-2.5-.9-1.2-1.5-2.6-1.7-3-.2-.7-.7-2.4-.7-4.1.1-2.9,1.1-4.7,1.4-5.2.7-1.2,1.6-2.3,2.6-3.2,2.4-2,5.6-3,8.8-2.6v6.2c-.5-.2-1.1-.3-1.6-.3-2.9,0-5.2,2.3-5.2,5.2s2.3,5.2,5.2,5.2Z"/>
</svg>