<?xml version="1.0" encoding="UTF-8"?>
<svg id="icons" xmlns="http://www.w3.org/2000/svg" version="1.1" viewBox="0 0 50 50">
  <!-- Generator: Adobe Illustrator 29.2.0, SVG Export Plug-In . SVG Version: 2.1.0 Build 108)  -->
  <defs>
    <style>
      .st0 {
        fill: #fff;
      }
    </style>
  </defs>
  <path class="st0" d="M25,0C11.2,0,0,11.2,0,25s11.2,25,25,25,25-11.2,25-25S38.8,0,25,0ZM41.5,22.8s-2.2,0-3.8-.5c-2.2-.6-3.7-1.5-3.7-1.5,0,0-1-.7-1.1-.7v12.6c0,.7-.2,2.4-.7,3.9-.5,1.2-1.2,2.4-2.1,3.4,0,0-1.4,1.7-3.8,2.8-2.2,1-4.1,1-4.6,1,0,0-3.3.1-6.3-1.9h0s0,0,0,0c-1-.7-1.9-1.5-2.7-2.5-.9-1.2-1.5-2.6-1.7-3h0c-.2-.7-.7-2.4-.7-4.1.1-2.9,1.1-4.7,1.4-5.2.7-1.2,1.6-2.3,2.6-3.2,2.4-2,5.6-3,8.8-2.6v6.2c-.5-.2-1.1-.3-1.6-.3-2.9,0-5.2,2.3-5.2,5.2s2.3,5.2,5.2,5.2c.9,0,1.8-.2,2.5-.7,1.5-.9,2.5-2.4,2.6-4.1h0s0,0,0,0c0,0,0,0,0-.1,0-.3,0-.6,0-.9V8.1h6.1s0,.6,0,1.5h0c.2,1.1.7,2.7,2,4.2.5.6,1.1,1.1,1.8,1.5.2.1.5.3.7.4,1.6.8,3.1,1,3.9.9v6.1Z"/>
</svg>