<?xml version="1.0" encoding="UTF-8"?>
<svg id="Layer_1" xmlns="http://www.w3.org/2000/svg" version="1.1" viewBox="0 0 800 800">
  <defs>
    <style>
      .st0 {
        fill: #fff;
        fill-rule: evenodd;
      }
    </style>
  </defs>
  <path class="st0" d="M0,0v800h800V0H0ZM504.56,669.89c-18.96,4.74-39.52,7.03-61.79,7.03-19.17,0-41.23-3.09-66.58-9.32-20.62-7.93-36.43-17.47-47.46-28.5-14.38-12.94-23.92-25.41-28.5-38.08-6.45-16.03-9.59-35-9.59-57.05v-192.66h-59.5v-78.41c19.12-6.5,37.23-16.67,54.7-31.05,17.47-14.12,30.2-29.93,38.08-47.41,6.23-14.38,12.68-38.08,18.96-71.37h75.53v142.96h127.94v85.28h-127.94v140.25c0,31.85,2.87,52.41,7.67,62,1.65,7.88,7.3,14.97,16.67,21.41,15.98,7.72,30.15,11.66,42.82,11.66,26.84,0,54.76-9.38,83.25-28.5v87.99h0c-20.61,11.03-42.02,18.96-64.29,23.76Z"/>
</svg>