<?xml version="1.0" encoding="UTF-8"?>
<svg id="Layer_1" xmlns="http://www.w3.org/2000/svg" version="1.1" viewBox="0 0 100 101.19">
  <!-- Generator: Adobe Illustrator 30.5.1, SVG Export Plug-In . SVG Version: 2.1.4 Build 3)  -->
  <defs>
    <style>
      .st0 {
        fill: #fff;
      }
    </style>
  </defs>
  <path class="st0" d="M100,50c0-2.02-.13-4.01-.37-5.96V0H0v101.19h99.63v-45.22c.23-1.96.37-3.94.37-5.96ZM71,58.5c-3.3,5.6-7.8,10.1-13.2,13.3-5.4,3.3-12.6,5.7-21.1,5.4-7.9-.2-14.2-2.5-19.3-5.6-.3-.2-.7-.4-.9-.7,8.8,1,15.5-1.9,20.3-5.6-3.5-.1-6.2-1.3-8.2-3-2-1.6-3.7-3.8-4.6-6.6,1.8.4,4.4.3,6-.2-3.3-.7-5.7-2.5-7.6-4.7-1.9-2.1-3.2-5-3.2-9,.1-.2.4.1.6.2,1.5.7,3.4,1.3,5.5,1.4-3.4-2.4-6.8-7-5.8-13.5.3-1.9.9-3.5,1.7-4.9.9.9,1.7,1.9,2.6,2.8,6.2,6.2,14.2,10.7,25.8,11.6-1.6-7.1,2.1-12.4,6.6-15,2.5-1.4,6-2.1,9.4-1.4,3.1.6,5.5,2.2,7.3,4,3.4-.6,6.1-1.9,8.7-3.3-1.2,3.3-3.1,5.9-6,7.5,2.8-.2,5.5-1.2,7.8-2.1-1.7,2.9-4.1,5.2-6.7,7.3.3,9.1-2.3,16.4-5.7,22.1Z"/>
</svg>