<?xml version="1.0" encoding="UTF-8"?>
<svg id="Layer_1" xmlns="http://www.w3.org/2000/svg" version="1.1" viewBox="0 0 256 256">
  <!-- Generator: Adobe Illustrator 29.4.0, SVG Export Plug-In . SVG Version: 2.1.0 Build 152)  -->
  <defs>
    <style>
      .st0 {
        fill: #fff;
      }
    </style>
  </defs>
  <path class="st0" d="M127.86,1.41C58.02,1.41,1.41,58.02,1.41,127.86s56.61,126.45,126.45,126.45,126.45-56.61,126.45-126.45S197.69,1.41,127.86,1.41ZM92.1,51.44c6.62-3.13,12.14-4.97,19.64-6.54,8.43-1.77,24.28-1.79,32.58-.04,8.96,1.89,19.52,5.82,25.46,9.48l1.77,1.08-4.05-.2c-8.06-.41-19.81,2.85-32.42,8.98-3.8,1.85-7.11,3.33-7.35,3.29-.24-.05-3.34-1.56-6.89-3.36h0c-7.06-3.59-17.96-7.44-23.97-8.47-2.11-.36-5.7-.57-7.99-.45-4.97.25-4.75,0,3.22-3.77ZM60.81,177.55c.96,2.53.08,1.59-3.15-3.36h.01c-7.86-12.06-11.83-23.94-13.75-41.11-.64-5.67-.41-8.91,1.44-20.55,2.3-14.49,10.56-31.28,20.48-41.6,4.23-4.39,4.6-4.5,9.76-2.76,6.25,2.12,12.93,6.73,23.29,16.1l6.05,5.47-3.31,4.05c-15.33,18.82-31.51,45.52-37.6,62.03-3.31,8.97-4.64,17.98-3.21,21.73ZM185.02,189.34c-2.67,5.13-19.27,15.15-31.45,18.99-10.05,3.18-23.24,4.52-34.11,3.48-12.98-1.24-26.12-5.9-37.41-13.27-9.46-6.17-11.59-8.71-11.59-13.77,0-10.17,11.18-27.99,30.32-48.29,10.86-11.54,26-25.05,27.63-24.69,3.18.71,28.63,25.53,38.15,37.21,15.06,18.47,21.98,33.6,18.46,40.34ZM211.07,143.09c-1.23,6.28-3.82,14.43-6.33,19.95-1.9,4.14-6.58,12.18-8.64,14.79q-1.06,1.35-.47-1.56l.02-.03c.78-3.79-.21-10.75-2.51-17.78-4.98-15.21-21.65-43.5-36.95-62.73l-4.82-6.06,5.21-4.79c6.8-6.25,11.53-9.99,16.63-13.17,4.02-2.51,9.77-4.73,12.24-4.73,1.52,0,6.89,5.58,11.21,11.65,6.7,9.4,11.64,20.82,14.14,32.69,1.62,7.68,1.75,24.09.26,31.75Z"/>
</svg>