<?xml version="1.0" encoding="UTF-8"?>
<svg id="YouTube" xmlns="http://www.w3.org/2000/svg" version="1.1" viewBox="0 0 100 100">
  <!-- Generator: Adobe Illustrator 30.5.1, SVG Export Plug-In . SVG Version: 2.1.4 Build 3)  -->
  <defs>
    <style>
      .st0 {
        fill: #fff;
      }
    </style>
  </defs>
  <path class="st0" d="M27.1,55.4c1.3,0,2.7-.1,3.8,0v20.5h3.7c0-6.8-.1-13.8,0-20.6,1.3.2,2.5.2,3.8.2v-3.8h-11.3c-.1,0,0,.1,0,.1v3.6Z"/>
  <path class="st0" d="M38.5,71.3c0,1.6-.1,3.1.5,3.9,1.2,1.8,4,.3,4.9-.6.2-.2.4-.5.7-.6v1.9h3.3v-18h-3.3c-.1,3.8-.1,8.1-.1,11.8,0,.6.1,1.3,0,1.7-.1.5-1.4,1.5-2.1,1.4-1-.1-.7-2.1-.7-3.2v-11.7h-3.2c-.1,0,0,.1,0,.1v13.3Z"/>
  <path class="st0" d="M49.1,27c-.3-.6-1.1-.7-1.6-.6-1.4.2-1.1,2-1.1,3.5v5.7c0,.8-.1,2.2.2,2.7.6.9,2.2.5,2.5-.3.3-.7.1-1.9.1-2.7v-5.6c0-1,.2-2.2-.1-2.7Z"/>
  <path class="st0" d="M51,76h3.3v-1.3c.9,1.1,2.9,2,4.6,1.2.9-.5,1.5-1.6,1.6-2.9.1-1.6,0-3.6,0-5.6,0-2.1.1-4.2,0-5.6-.1-1.5-.5-2.8-1.3-3.4-1.1-.9-2.8-.7-3.8,0-.4.3-.7.7-1.1.9v-7.6h-3.3c-.1,0,0,.1,0,.1v24.2ZM54.4,61.8c.2-.6,1.3-1.1,2.1-.6,1.1.6.6,4.4.6,6.1v3.4c0,1,.1,2.3-.5,2.7-.8.5-1.7-.2-2.2-.7v-8.2c0-.9-.2-2.1,0-2.7Z"/>
  <path class="st0" d="M64.9,75.7c1.4,1,4,1.1,5.7.1,1.8-1,2.2-3.2,2.1-6.4h-3.4c-.1,1.3.3,3.2-.6,3.8-.3.2-1,.4-1.6.1-1.4-.6-.5-3.9-.8-5.7h6.3c-.1-2.5.2-4.9-.2-6.9-.5-2-2.2-3.3-4.8-3.2-2.4.1-4.3,1.8-4.6,3.9-.3,2.1-.1,5.3-.1,8.1,0,3,.3,5,2,6.2ZM66.7,61.4c.4-.6,1.5-.6,2.1-.2.8.6.5,2.2.6,3.4h-2.9c-.1-1.2-.3-2.5.2-3.2Z"/>
  <path class="st0" d="M0,0v100h100V0H0ZM52.1,39.6c-1.1,2.1-4.6,3.1-6.9,1.6-1.2-.7-2-2.1-2.1-3.6-.2-1.6,0-3.5,0-5.3,0-2.7-.3-5.4.5-6.9.6-1.1,1.8-2,3.6-2.2,2.4-.2,4,.7,4.8,2.1.9,1.5.6,4.9.6,7.1s.2,5.7-.5,7.2ZM39.5,29.7c-.2.6-.5,1.2-.5,1.8-.1.8,0,1.7,0,2.5v7.5c-1.2,0-2.5.1-3.7,0v-4.7c0-1.6.2-3.2,0-4.7-.1-.6-.4-1.2-.5-1.8-1.5-4.4-2.7-8.8-4.1-12.9,1.1-.1,2.5,0,3.7,0,.8,2.8,1.5,5.7,2.2,8.5.1.4.1.8.4,1.1.3-.3.3-.8.4-1.1.7-2.8,1.4-5.8,2.1-8.5h3.7c-1.1,4-2.5,8.2-3.7,12.3ZM31.7,46.2h36.5c4.9,0,8.8,3.9,8.8,8.8v18.9c0,4.9-3.9,8.8-8.8,8.8H31.7c-4.9,0-8.8-3.9-8.8-8.8v-18.9c0-4.9,3.9-8.8,8.8-8.8ZM58.7,37.6c.2,1.2,1.1,1.1,1.9.5.3-.2.8-.6.9-.9.1-.4,0-1.2,0-1.7v-11.7c1-.1,2.3-.1,3.3,0v17.7c-1,.1-2.3.1-3.3,0v-1.8c-.8.9-3.4,3.2-5.2,1.7-1.4-1.3-.9-5.9-.9-8.5v-9.2c1-.1,2.3-.1,3.3,0v6.9c0,2.4-.2,4.9,0,7Z"/>
</svg>